<svg xmlns="http://www.w3.org/2000/svg" viewBox="0 0 256 257">
  <path fill="#fff" d="M255.2 37.9 134.9 252.7c-2.5 4.5-9 4.6-11.6.1L.9 37.9c-2.7-4.8 1.4-10.6 6.8-9.6l120.5 21.5c.8.1 1.6.1 2.4 0l117.8-21.4c5.4-1 9.5 4.8 6.8 9.5Z"/>
  <path fill="#050505" d="M185.4.1 96.4 17.5c-1.5.3-2.6 1.6-2.7 3.2l-5.5 93.5c-.1 2.2 1.9 3.9 4 3.5l24.8-5.7c2.3-.5 4.4 1.5 3.9 3.8l-7.4 36.2c-.5 2.4 1.8 4.5 4.1 3.7l15.3-4.7c2.3-.7 4.5 1.3 4 3.7l-11.7 56.5c-.7 3.5 3.9 5.4 5.8 2.4l1.3-2.1 72.6-144.9c1.2-2.4-.9-5.1-3.5-4.6l-25.5 4.9c-2.4.5-4.4-1.8-3.7-4.1l16.7-57.8c.7-2.4-1.4-4.6-3.8-4.1Z"/>
</svg>
